<?xml version="1.0" standalone="no"?>
<!DOCTYPE svg PUBLIC "-//W3C//DTD SVG 20010904//EN"
 "http://www.w3.org/TR/2001/REC-SVG-20010904/DTD/svg10.dtd">
<svg version="1.0" xmlns="http://www.w3.org/2000/svg"
 width="1024.000000pt" height="1024.000000pt" viewBox="0 0 1024.000000 1024.000000"
 preserveAspectRatio="xMidYMid meet">
<metadata>
Created by potrace 1.14, written by Peter Selinger 2001-2017
</metadata>
<g transform="translate(0.000000,1024.000000) scale(0.100000,-0.100000)"
fill="#000000" stroke="none">
<path d="M4738 7935 c-2 -1 -59 -5 -128 -9 -69 -3 -141 -8 -160 -11 -19 -2
-60 -6 -90 -9 -30 -3 -66 -8 -80 -11 -14 -3 -47 -7 -75 -10 -27 -2 -61 -7 -75
-10 -14 -3 -38 -8 -55 -10 -33 -4 -68 -11 -135 -26 -25 -6 -53 -12 -62 -14
-10 -2 -62 -16 -115 -31 -54 -14 -102 -27 -108 -29 -5 -1 -17 -5 -25 -8 -8 -3
-50 -18 -93 -32 -42 -14 -89 -33 -105 -41 -15 -7 -31 -14 -36 -14 -17 0 -191
-92 -261 -138 -84 -56 -216 -185 -268 -265 -54 -81 -119 -207 -155 -302 -44
-115 -46 -119 -48 -130 -1 -5 -3 -12 -4 -15 -1 -3 -3 -12 -5 -20 -2 -8 -13
-52 -24 -97 -22 -88 -28 -119 -36 -173 -3 -19 -7 -44 -10 -55 -4 -21 -13 -83
-20 -150 -24 -206 -24 -661 0 -840 51 -381 229 -742 461 -935 152 -127 351
-208 604 -247 69 -11 356 -11 428 -1 62 9 75 9 90 -5 26 -23 128 -67 176 -75
23 -3 78 -7 123 -7 46 0 83 -2 83 -5 0 -3 -7 -23 -14 -45 -8 -22 -12 -60 -10
-85 9 -102 15 -150 30 -235 9 -49 17 -101 18 -115 1 -14 4 -30 8 -35 3 -6 6
-23 6 -40 1 -16 4 -40 7 -52 3 -13 7 -31 9 -40 14 -69 20 -99 21 -108 1 -5 7
-35 13 -65 7 -30 14 -65 17 -78 2 -13 6 -31 9 -40 3 -9 7 -28 10 -42 3 -14 9
-42 15 -62 5 -20 7 -39 4 -42 -17 -17 161 -148 369 -269 116 -68 137 -77 203
-83 79 -8 692 -5 754 3 31 4 72 6 91 5 19 -1 111 -3 205 -6 235 -5 276 8 400
130 55 53 154 176 156 192 0 4 3 16 5 27 7 27 6 274 -1 362 -8 101 -25 137
-75 157 -22 9 -43 24 -47 34 -3 9 -14 26 -25 38 -18 20 -18 20 36 37 30 10 57
25 60 34 4 9 5 136 4 283 l-3 266 25 1 c100 1 235 36 325 85 70 37 191 154
227 218 60 107 67 120 62 120 -4 0 -2 6 4 13 11 13 65 178 78 237 4 19 8 37 9
40 7 31 18 102 20 127 2 17 5 35 8 40 22 36 25 540 3 733 -10 93 -19 156 -22
161 -2 3 -6 24 -8 46 -3 22 -15 80 -27 129 -11 49 -22 96 -23 104 -1 8 -5 22
-8 30 -4 8 -16 47 -28 85 -57 187 -152 396 -239 526 -22 34 -41 63 -41 66 0 3
-30 43 -66 90 -63 80 -170 193 -244 258 -59 51 -192 145 -205 145 -8 0 -15 4
-17 8 -10 25 -295 156 -393 181 -27 7 -59 16 -70 21 -11 4 -56 16 -100 25 -82
18 -95 20 -155 28 -19 3 -46 8 -60 11 -28 6 -69 12 -150 21 -79 9 -115 13
-115 15 0 1 -22 3 -50 5 -84 6 -187 15 -240 21 -50 5 -562 13 -567 9z m247
-3763 c42 -35 74 -149 73 -262 0 -115 2 -127 28 -153 14 -14 36 -27 49 -29
l24 -3 -29 -44 c-16 -24 -28 -47 -25 -50 2 -4 0 -13 -5 -20 -6 -10 -12 -6 -26
15 -10 16 -29 43 -43 59 -36 45 -50 87 -56 167 -3 40 -8 87 -10 103 -2 17 -7
68 -10 115 -4 47 -9 93 -11 103 -7 22 15 22 41 -1z"/>
</g>
</svg>
