<?xml version="1.0" standalone="no"?>
<!DOCTYPE svg PUBLIC "-//W3C//DTD SVG 20010904//EN"
 "http://www.w3.org/TR/2001/REC-SVG-20010904/DTD/svg10.dtd">
<svg version="1.0" xmlns="http://www.w3.org/2000/svg"
 width="1024.000000pt" height="1024.000000pt" viewBox="0 0 1024.000000 1024.000000"
 preserveAspectRatio="xMidYMid meet">
<metadata>
Created by potrace 1.14, written by Peter Selinger 2001-2017
</metadata>
<g transform="translate(0.000000,1024.000000) scale(0.100000,-0.100000)"
fill="#000000" stroke="none">
<path d="M4594 9270 c-3 -2 -42 -5 -87 -6 -45 -1 -82 -3 -82 -4 0 0 -38 -3
-85 -5 -112 -6 -166 -11 -178 -19 -6 -3 -13 -2 -17 4 -4 6 -12 7 -18 3 -7 -4
-23 -8 -37 -9 -35 -3 -126 -13 -180 -19 -25 -3 -60 -7 -77 -8 -18 -1 -33 -4
-33 -7 0 -3 -16 -5 -35 -5 -19 1 -35 -1 -35 -4 0 -3 -10 -6 -22 -7 -46 -1
-140 -15 -165 -25 -14 -5 -28 -8 -30 -5 -3 2 -18 0 -35 -5 -17 -4 -54 -11 -81
-14 -28 -3 -55 -9 -61 -13 -6 -3 -15 -7 -21 -8 -5 -1 -26 -5 -45 -9 -19 -4
-43 -7 -52 -8 -10 -1 -18 -4 -18 -7 0 -3 -8 -6 -17 -7 -33 -3 -68 -11 -95 -22
-16 -6 -28 -9 -28 -6 0 2 -18 -2 -41 -10 -23 -8 -45 -12 -50 -9 -5 3 -9 1 -9
-4 0 -8 -6 -10 -50 -14 -11 -1 -20 -6 -20 -11 0 -5 -7 -7 -15 -3 -8 3 -15 0
-15 -6 0 -6 -3 -9 -6 -6 -3 3 -28 -3 -56 -13 -28 -10 -55 -16 -59 -13 -5 3 -9
0 -9 -6 0 -7 -7 -10 -15 -6 -8 3 -15 1 -15 -4 0 -6 -9 -10 -20 -10 -11 0 -20
-5 -20 -11 0 -5 -5 -7 -10 -4 -6 4 -17 1 -25 -5 -8 -7 -15 -9 -15 -6 0 4 -10
1 -22 -6 -13 -7 -25 -13 -28 -13 -3 -1 -18 -7 -33 -13 -16 -7 -32 -10 -37 -7
-4 3 -11 -2 -14 -10 -3 -8 -9 -14 -13 -13 -4 1 -18 -3 -29 -10 -12 -6 -24 -8
-28 -5 -3 3 -6 1 -6 -5 0 -7 -7 -12 -15 -12 -18 0 -97 -40 -107 -54 -4 -6 -8
-7 -8 -3 0 9 -112 -51 -121 -65 -3 -5 -9 -9 -13 -9 -17 2 -24 -1 -44 -19 -12
-11 -25 -21 -29 -22 -17 -4 -63 -33 -63 -40 0 -5 -7 -8 -15 -8 -8 0 -15 -5
-15 -12 0 -6 -3 -9 -6 -5 -3 3 -17 -6 -30 -20 -13 -14 -24 -23 -24 -19 0 6
-26 -17 -109 -94 -26 -24 -102 -108 -146 -161 -26 -31 -115 -162 -146 -214
-12 -22 -27 -43 -32 -46 -5 -3 -8 -10 -8 -15 0 -5 -15 -39 -35 -76 -19 -38
-31 -68 -27 -68 5 0 3 -4 -3 -8 -11 -7 -93 -199 -99 -233 -2 -10 -8 -26 -13
-36 -6 -10 -10 -20 -10 -23 -1 -3 -3 -12 -6 -20 -12 -39 -46 -159 -52 -190
-10 -46 -11 -50 -14 -52 -2 -4 -4 -14 -30 -132 -32 -150 -51 -266 -45 -276 3
-5 1 -11 -4 -15 -6 -3 -9 -21 -7 -41 1 -19 0 -37 -4 -39 -5 -3 -8 -21 -15
-115 -2 -19 -4 -35 -5 -35 -1 0 -3 -25 -6 -55 -2 -30 -6 -77 -9 -105 -3 -27
-6 -56 -5 -62 0 -7 0 -19 0 -25 0 -7 -2 -56 -5 -108 -15 -231 -3 -773 19 -905
5 -28 15 -102 21 -150 1 -11 3 -20 5 -20 2 0 11 -57 13 -87 1 -10 4 -18 7 -18
3 0 6 -19 8 -42 1 -22 6 -46 10 -52 7 -12 8 -15 17 -61 9 -49 38 -139 48 -152
5 -7 7 -13 3 -13 -3 0 1 -19 10 -42 49 -130 79 -205 90 -223 7 -11 14 -24 15
-30 3 -17 12 -40 18 -45 10 -8 51 -94 50 -104 0 -5 3 -12 8 -15 5 -3 20 -25
33 -49 13 -23 28 -42 32 -42 5 0 7 -4 4 -8 -3 -5 5 -19 17 -33 12 -13 28 -36
36 -51 8 -16 18 -28 23 -28 4 0 8 -5 8 -10 0 -11 34 -53 88 -108 17 -19 32
-36 32 -39 0 -5 70 -74 153 -150 19 -18 40 -33 46 -33 6 0 11 -3 11 -8 0 -4
18 -18 40 -32 22 -14 40 -28 40 -32 0 -5 5 -8 11 -8 6 0 23 -8 37 -19 48 -33
160 -90 166 -84 3 4 6 1 6 -5 0 -7 7 -12 15 -12 9 0 27 -7 40 -16 14 -9 25
-13 25 -10 0 4 13 0 29 -8 16 -9 31 -12 35 -9 3 4 6 1 6 -5 0 -7 9 -12 20 -12
12 0 34 -7 50 -15 17 -9 30 -13 30 -11 0 3 11 1 25 -4 14 -5 36 -12 48 -14 12
-3 64 -14 115 -26 51 -11 97 -18 102 -15 5 3 11 1 15 -5 4 -6 10 -8 15 -5 5 3
11 2 13 -3 3 -4 28 -7 56 -7 28 0 51 -2 51 -5 0 -13 360 -18 485 -6 142 13
169 17 182 27 9 8 13 8 13 0 0 -8 5 -9 19 -2 14 8 23 6 36 -9 10 -11 24 -20
31 -20 7 0 14 -3 16 -7 5 -14 105 -63 112 -56 3 3 6 2 6 -4 0 -6 15 -14 33
-18 17 -4 39 -9 47 -12 8 -2 25 -5 37 -6 13 -1 23 -4 23 -7 0 -4 10 -7 23 -7
28 -2 142 -11 185 -16 18 -2 36 1 38 5 3 5 12 4 20 -3 8 -6 14 -7 14 -2 0 6
12 9 28 8 30 -2 30 -9 2 -67 -16 -33 -18 -56 -14 -151 2 -62 6 -123 9 -137 3
-14 8 -47 11 -75 3 -27 9 -72 14 -100 6 -27 12 -68 15 -90 2 -22 7 -51 10 -65
7 -37 16 -90 21 -130 2 -19 6 -42 9 -50 3 -8 11 -53 20 -100 8 -47 17 -96 20
-110 7 -33 35 -179 39 -205 2 -11 4 -20 6 -20 1 0 4 -13 6 -30 2 -16 9 -48 15
-70 5 -22 12 -53 14 -70 2 -16 4 -31 6 -32 2 -4 3 -8 18 -78 22 -101 50 -196
63 -214 25 -33 76 -79 82 -74 3 4 6 1 6 -5 0 -6 8 -13 18 -16 9 -3 28 -16 42
-29 14 -13 53 -40 88 -61 34 -22 62 -43 62 -48 0 -5 4 -7 9 -3 5 3 16 -2 24
-10 9 -8 20 -15 26 -15 6 0 11 -3 11 -8 0 -4 9 -12 20 -17 11 -6 74 -43 140
-82 67 -40 125 -73 130 -73 4 0 10 -4 12 -9 2 -5 10 -11 18 -13 8 -2 17 -5 20
-9 3 -3 28 -14 55 -24 52 -20 74 -23 192 -27 40 -2 73 -7 73 -11 0 -5 6 -5 13
0 16 10 38 10 60 0 10 -5 17 -4 17 3 0 7 6 8 18 1 13 -7 23 -6 30 1 7 7 12 8
12 2 0 -5 25 -9 55 -9 30 0 55 4 55 8 0 5 6 5 12 1 19 -12 48 -12 48 -1 0 6 5
6 13 1 15 -11 38 -11 55 -1 6 5 12 4 12 -1 0 -10 30 -9 48 2 6 4 12 4 12 -1 0
-4 11 -8 25 -8 14 0 25 3 25 6 0 8 38 5 46 -4 4 -3 15 -2 25 4 11 5 19 6 19 1
0 -9 53 -8 69 3 6 3 11 1 11 -6 0 -8 4 -8 13 -1 8 7 18 7 27 2 8 -5 21 -5 30
0 9 5 22 5 30 0 8 -5 21 -5 29 -1 9 3 30 5 46 4 39 -4 45 -4 75 0 14 2 32 0
41 -5 9 -4 20 -4 23 0 4 4 19 8 34 9 15 1 47 5 72 8 25 4 56 8 70 9 14 1 31 5
37 9 6 4 14 3 17 -1 3 -5 21 -8 41 -7 19 1 35 -1 35 -4 0 -6 57 -9 308 -13 83
-2 152 -1 152 2 0 3 19 6 43 6 69 2 108 8 113 16 3 5 10 6 15 3 5 -4 9 -1 9 5
0 6 4 8 10 5 34 -21 239 147 363 297 147 177 151 193 151 483 -1 328 -21 498
-63 540 -37 37 -48 43 -88 49 -36 7 -42 12 -61 56 -12 27 -31 57 -42 68 l-21
20 53 12 c29 7 58 15 63 19 11 6 17 8 39 10 20 2 27 25 32 106 6 76 6 484 0
682 -2 67 0 125 3 130 3 4 35 9 71 10 107 2 150 7 150 15 0 4 10 6 23 4 12 -2
33 2 47 9 14 7 31 10 38 8 6 -3 12 0 12 6 0 5 9 8 20 6 11 -2 22 1 25 6 4 5
11 7 16 4 5 -4 9 -1 9 5 0 6 4 9 9 5 5 -3 13 0 16 6 4 5 13 8 21 5 8 -3 14 -2
14 2 0 4 19 16 43 27 71 33 153 88 214 143 20 17 40 32 46 32 6 0 8 3 4 6 -3
3 9 21 26 38 41 42 77 85 77 91 0 3 14 24 31 48 17 23 37 56 45 72 7 17 18 37
24 45 42 63 126 297 166 465 32 133 34 146 49 245 4 25 8 56 11 70 9 54 18
147 18 187 1 24 3 43 6 43 14 0 20 603 7 775 -4 55 -9 125 -11 155 -3 30 -7
69 -10 85 -2 17 -8 55 -11 85 -4 30 -8 64 -10 75 -25 166 -32 210 -35 210 -1
0 -3 11 -6 25 -2 14 -11 59 -20 100 -9 41 -17 80 -19 85 -2 12 -20 80 -41 160
-23 84 -124 386 -137 410 -6 11 -12 22 -12 25 -4 25 -84 206 -117 264 -5 11
-27 51 -48 90 -20 39 -47 89 -60 111 -36 65 -187 289 -215 319 -14 15 -25 31
-25 36 0 6 -9 15 -20 22 -11 7 -20 16 -20 20 0 18 -263 288 -349 358 -23 19
-52 43 -64 54 -12 10 -51 39 -87 64 -36 26 -66 50 -68 54 -2 5 -8 8 -12 8 -5
0 -29 14 -53 30 -25 17 -50 30 -56 30 -6 0 -11 4 -11 9 0 5 -8 11 -17 15 -10
3 -34 15 -53 26 -64 38 -115 64 -122 62 -5 -1 -8 2 -8 8 0 6 -3 9 -7 8 -5 -1
-32 10 -62 25 -30 15 -61 27 -68 27 -7 0 -13 5 -13 10 0 6 -3 9 -7 8 -5 0 -17
2 -28 6 -11 5 -27 10 -35 14 -8 3 -17 6 -20 7 -3 1 -18 7 -33 13 -16 7 -34 12
-42 12 -8 0 -17 5 -20 10 -4 6 -11 8 -16 5 -5 -4 -9 -2 -9 3 0 5 -6 9 -12 10
-23 2 -43 7 -55 15 -7 5 -17 5 -23 2 -5 -3 -10 -1 -10 6 0 7 -3 10 -6 6 -3 -3
-23 1 -44 8 -21 7 -41 11 -44 8 -3 -4 -6 0 -6 7 0 7 -3 11 -6 8 -3 -4 -20 -2
-37 4 -18 5 -43 11 -57 13 -14 3 -54 11 -90 19 -35 8 -68 12 -72 10 -4 -3 -8
0 -8 6 0 6 -3 9 -8 6 -4 -2 -30 0 -57 5 -45 9 -73 13 -155 24 -14 2 -25 4 -25
5 0 4 -36 9 -95 14 -30 2 -62 6 -70 10 -8 3 -37 7 -65 10 -27 2 -50 5 -50 6 0
1 -22 4 -120 13 -27 3 -77 8 -110 12 -33 4 -82 8 -110 10 -27 2 -50 4 -50 5 0
2 -85 8 -155 11 -30 2 -61 7 -67 12 -9 6 -13 6 -13 -1 0 -6 -9 -10 -20 -9 -11
1 -20 4 -20 7 0 3 -45 5 -100 5 -55 0 -100 4 -100 9 0 5 -7 3 -15 -4 -8 -7
-15 -9 -15 -4 0 9 -598 13 -606 4z m388 -6046 c21 -15 47 -42 58 -60 22 -35
49 -117 55 -167 2 -18 7 -54 10 -82 4 -27 7 -106 7 -175 1 -107 4 -130 21
-162 11 -21 29 -40 39 -44 10 -3 18 -9 18 -13 0 -4 6 -8 13 -9 33 -2 63 -9 67
-14 3 -3 -6 -19 -20 -35 -14 -15 -30 -39 -36 -53 -26 -57 -34 -82 -29 -90 3
-5 1 -11 -3 -14 -9 -5 -72 59 -72 73 0 5 -9 16 -20 26 -11 10 -20 24 -20 32 0
7 -3 13 -7 13 -16 0 -62 87 -67 125 -3 22 -8 49 -10 61 -2 11 -7 58 -11 105
-4 46 -9 93 -11 104 -2 11 -6 52 -9 90 -3 39 -8 97 -11 130 -3 33 -8 79 -9
103 -2 23 -7 51 -10 62 -9 28 11 26 57 -6z"/>
</g>
</svg>
